<mxfile host="app.diagrams.net" modified="2023-04-01T20:29:49.985Z" agent="Mozilla/5.0 (Windows NT 10.0; Win64; x64) AppleWebKit/537.36 (KHTML, like Gecko) Chrome/110.0.0.0 Safari/537.36 OPR/96.0.0.0 (Edition std-1)" etag="2HpMJDnLelBXY6coBCwq" version="21.1.2" type="device">
  <diagram name="PÃ¡gina-1" id="7Qvb1fXA4Wj_dqQTDwd3">
    <mxGraphModel dx="1393" dy="1958" grid="1" gridSize="10" guides="1" tooltips="1" connect="1" arrows="1" fold="1" page="1" pageScale="1" pageWidth="827" pageHeight="1169" math="0" shadow="0">
      <root>
        <mxCell id="0" />
        <mxCell id="1" parent="0" />
        <mxCell id="POgHE48X09RtfBZ0wKbj-1" value="a" style="shape=cylinder3;whiteSpace=wrap;html=1;boundedLbl=1;backgroundOutline=1;size=15;lid=0;" vertex="1" parent="1">
          <mxGeometry x="60" y="-970" width="60" height="80" as="geometry" />
        </mxCell>
        <mxCell id="POgHE48X09RtfBZ0wKbj-3" value="Empilha(P,b)" style="text;html=1;align=center;verticalAlign=middle;resizable=0;points=[];autosize=1;strokeColor=none;fillColor=none;" vertex="1" parent="1">
          <mxGeometry x="45" y="-880" width="90" height="30" as="geometry" />
        </mxCell>
        <mxCell id="POgHE48X09RtfBZ0wKbj-4" value="b" style="shape=cylinder3;whiteSpace=wrap;html=1;boundedLbl=1;backgroundOutline=1;size=15;lid=0;" vertex="1" parent="1">
          <mxGeometry x="170" y="-970" width="60" height="80" as="geometry" />
        </mxCell>
        <mxCell id="POgHE48X09RtfBZ0wKbj-6" value="Pilha_cheia = false&lt;br&gt;" style="text;html=1;align=center;verticalAlign=middle;resizable=0;points=[];autosize=1;strokeColor=none;fillColor=none;" vertex="1" parent="1">
          <mxGeometry x="150" y="-880" width="120" height="30" as="geometry" />
        </mxCell>
        <mxCell id="POgHE48X09RtfBZ0wKbj-7" value="b" style="shape=cylinder3;whiteSpace=wrap;html=1;boundedLbl=1;backgroundOutline=1;size=15;lid=0;" vertex="1" parent="1">
          <mxGeometry x="290" y="-970" width="60" height="80" as="geometry" />
        </mxCell>
        <mxCell id="POgHE48X09RtfBZ0wKbj-8" value="s" style="shape=cylinder3;whiteSpace=wrap;html=1;boundedLbl=1;backgroundOutline=1;size=15;lid=0;" vertex="1" parent="1">
          <mxGeometry x="290" y="-1030" width="60" height="80" as="geometry" />
        </mxCell>
        <mxCell id="POgHE48X09RtfBZ0wKbj-9" value="Empilha(P,s)&lt;br&gt;" style="text;html=1;align=center;verticalAlign=middle;resizable=0;points=[];autosize=1;strokeColor=none;fillColor=none;" vertex="1" parent="1">
          <mxGeometry x="290" y="-880" width="90" height="30" as="geometry" />
        </mxCell>
        <mxCell id="POgHE48X09RtfBZ0wKbj-10" value="b" style="shape=cylinder3;whiteSpace=wrap;html=1;boundedLbl=1;backgroundOutline=1;size=15;lid=0;" vertex="1" parent="1">
          <mxGeometry x="430" y="-960" width="60" height="80" as="geometry" />
        </mxCell>
        <mxCell id="POgHE48X09RtfBZ0wKbj-11" value="s" style="shape=cylinder3;whiteSpace=wrap;html=1;boundedLbl=1;backgroundOutline=1;size=15;lid=0;" vertex="1" parent="1">
          <mxGeometry x="430" y="-1020" width="60" height="80" as="geometry" />
        </mxCell>
        <mxCell id="POgHE48X09RtfBZ0wKbj-12" value="a" style="shape=cylinder3;whiteSpace=wrap;html=1;boundedLbl=1;backgroundOutline=1;size=15;lid=0;" vertex="1" parent="1">
          <mxGeometry x="430" y="-1080" width="60" height="80" as="geometry" />
        </mxCell>
        <mxCell id="POgHE48X09RtfBZ0wKbj-13" value="Empilha(P,a)" style="text;html=1;align=center;verticalAlign=middle;resizable=0;points=[];autosize=1;strokeColor=none;fillColor=none;" vertex="1" parent="1">
          <mxGeometry x="415" y="-880" width="90" height="30" as="geometry" />
        </mxCell>
        <mxCell id="POgHE48X09RtfBZ0wKbj-14" value="b" style="shape=cylinder3;whiteSpace=wrap;html=1;boundedLbl=1;backgroundOutline=1;size=15;lid=0;" vertex="1" parent="1">
          <mxGeometry x="560" y="-960" width="60" height="80" as="geometry" />
        </mxCell>
        <mxCell id="POgHE48X09RtfBZ0wKbj-16" value="s" style="shape=cylinder3;whiteSpace=wrap;html=1;boundedLbl=1;backgroundOutline=1;size=15;lid=0;" vertex="1" parent="1">
          <mxGeometry x="560" y="-1020" width="60" height="80" as="geometry" />
        </mxCell>
        <mxCell id="POgHE48X09RtfBZ0wKbj-17" value="a" style="shape=cylinder3;whiteSpace=wrap;html=1;boundedLbl=1;backgroundOutline=1;size=15;lid=0;" vertex="1" parent="1">
          <mxGeometry x="560" y="-1080" width="60" height="80" as="geometry" />
        </mxCell>
        <mxCell id="POgHE48X09RtfBZ0wKbj-18" value="c" style="shape=cylinder3;whiteSpace=wrap;html=1;boundedLbl=1;backgroundOutline=1;size=15;lid=0;" vertex="1" parent="1">
          <mxGeometry x="560" y="-1140" width="60" height="80" as="geometry" />
        </mxCell>
        <mxCell id="POgHE48X09RtfBZ0wKbj-19" value="Empilha(P,c)&lt;br&gt;" style="text;html=1;align=center;verticalAlign=middle;resizable=0;points=[];autosize=1;strokeColor=none;fillColor=none;" vertex="1" parent="1">
          <mxGeometry x="550" y="-880" width="90" height="30" as="geometry" />
        </mxCell>
        <mxCell id="POgHE48X09RtfBZ0wKbj-20" value="b" style="shape=cylinder3;whiteSpace=wrap;html=1;boundedLbl=1;backgroundOutline=1;size=15;lid=0;" vertex="1" parent="1">
          <mxGeometry x="700" y="-960" width="60" height="80" as="geometry" />
        </mxCell>
        <mxCell id="POgHE48X09RtfBZ0wKbj-21" value="s" style="shape=cylinder3;whiteSpace=wrap;html=1;boundedLbl=1;backgroundOutline=1;size=15;lid=0;" vertex="1" parent="1">
          <mxGeometry x="700" y="-1020" width="60" height="80" as="geometry" />
        </mxCell>
        <mxCell id="POgHE48X09RtfBZ0wKbj-22" value="a" style="shape=cylinder3;whiteSpace=wrap;html=1;boundedLbl=1;backgroundOutline=1;size=15;lid=0;" vertex="1" parent="1">
          <mxGeometry x="700" y="-1080" width="60" height="80" as="geometry" />
        </mxCell>
        <mxCell id="POgHE48X09RtfBZ0wKbj-23" value="Desempilha(P)&lt;br&gt;" style="text;html=1;align=center;verticalAlign=middle;resizable=0;points=[];autosize=1;strokeColor=none;fillColor=none;" vertex="1" parent="1">
          <mxGeometry x="680" y="-880" width="100" height="30" as="geometry" />
        </mxCell>
        <mxCell id="POgHE48X09RtfBZ0wKbj-24" value="b" style="shape=cylinder3;whiteSpace=wrap;html=1;boundedLbl=1;backgroundOutline=1;size=15;lid=0;" vertex="1" parent="1">
          <mxGeometry x="50" y="-520" width="60" height="80" as="geometry" />
        </mxCell>
        <mxCell id="POgHE48X09RtfBZ0wKbj-25" value="s" style="shape=cylinder3;whiteSpace=wrap;html=1;boundedLbl=1;backgroundOutline=1;size=15;lid=0;" vertex="1" parent="1">
          <mxGeometry x="50" y="-580" width="60" height="80" as="geometry" />
        </mxCell>
        <mxCell id="POgHE48X09RtfBZ0wKbj-26" value="Desempilha(P)&lt;br&gt;" style="text;html=1;align=center;verticalAlign=middle;resizable=0;points=[];autosize=1;strokeColor=none;fillColor=none;" vertex="1" parent="1">
          <mxGeometry x="35" y="-440" width="100" height="30" as="geometry" />
        </mxCell>
        <mxCell id="POgHE48X09RtfBZ0wKbj-27" value="b" style="shape=cylinder3;whiteSpace=wrap;html=1;boundedLbl=1;backgroundOutline=1;size=15;lid=0;" vertex="1" parent="1">
          <mxGeometry x="180" y="-530" width="60" height="80" as="geometry" />
        </mxCell>
        <mxCell id="POgHE48X09RtfBZ0wKbj-28" value="s" style="shape=cylinder3;whiteSpace=wrap;html=1;boundedLbl=1;backgroundOutline=1;size=15;lid=0;" vertex="1" parent="1">
          <mxGeometry x="180" y="-595" width="60" height="80" as="geometry" />
        </mxCell>
        <mxCell id="POgHE48X09RtfBZ0wKbj-29" value="h" style="shape=cylinder3;whiteSpace=wrap;html=1;boundedLbl=1;backgroundOutline=1;size=15;lid=0;" vertex="1" parent="1">
          <mxGeometry x="180" y="-655" width="60" height="80" as="geometry" />
        </mxCell>
        <mxCell id="POgHE48X09RtfBZ0wKbj-30" value="Empilha(P,h)&lt;br&gt;" style="text;html=1;align=center;verticalAlign=middle;resizable=0;points=[];autosize=1;strokeColor=none;fillColor=none;" vertex="1" parent="1">
          <mxGeometry x="170" y="-450" width="90" height="30" as="geometry" />
        </mxCell>
        <mxCell id="POgHE48X09RtfBZ0wKbj-31" value="b" style="shape=cylinder3;whiteSpace=wrap;html=1;boundedLbl=1;backgroundOutline=1;size=15;lid=0;" vertex="1" parent="1">
          <mxGeometry x="320" y="-530" width="60" height="80" as="geometry" />
        </mxCell>
        <mxCell id="POgHE48X09RtfBZ0wKbj-32" value="s" style="shape=cylinder3;whiteSpace=wrap;html=1;boundedLbl=1;backgroundOutline=1;size=15;lid=0;" vertex="1" parent="1">
          <mxGeometry x="320" y="-595" width="60" height="80" as="geometry" />
        </mxCell>
        <mxCell id="POgHE48X09RtfBZ0wKbj-33" value="s" style="shape=cylinder3;whiteSpace=wrap;html=1;boundedLbl=1;backgroundOutline=1;size=15;lid=0;" vertex="1" parent="1">
          <mxGeometry x="320" y="-655" width="60" height="80" as="geometry" />
        </mxCell>
        <mxCell id="POgHE48X09RtfBZ0wKbj-35" value="d" style="shape=cylinder3;whiteSpace=wrap;html=1;boundedLbl=1;backgroundOutline=1;size=15;lid=0;" vertex="1" parent="1">
          <mxGeometry x="320" y="-720" width="60" height="80" as="geometry" />
        </mxCell>
        <mxCell id="POgHE48X09RtfBZ0wKbj-37" value="Empilha(P,d)&lt;br&gt;" style="text;html=1;align=center;verticalAlign=middle;resizable=0;points=[];autosize=1;strokeColor=none;fillColor=none;" vertex="1" parent="1">
          <mxGeometry x="314" y="-440" width="90" height="30" as="geometry" />
        </mxCell>
        <mxCell id="POgHE48X09RtfBZ0wKbj-38" value="b" style="shape=cylinder3;whiteSpace=wrap;html=1;boundedLbl=1;backgroundOutline=1;size=15;lid=0;" vertex="1" parent="1">
          <mxGeometry x="496" y="-540" width="60" height="80" as="geometry" />
        </mxCell>
        <mxCell id="POgHE48X09RtfBZ0wKbj-39" value="s" style="shape=cylinder3;whiteSpace=wrap;html=1;boundedLbl=1;backgroundOutline=1;size=15;lid=0;" vertex="1" parent="1">
          <mxGeometry x="496" y="-605" width="60" height="80" as="geometry" />
        </mxCell>
        <mxCell id="POgHE48X09RtfBZ0wKbj-40" value="s" style="shape=cylinder3;whiteSpace=wrap;html=1;boundedLbl=1;backgroundOutline=1;size=15;lid=0;" vertex="1" parent="1">
          <mxGeometry x="496" y="-665" width="60" height="80" as="geometry" />
        </mxCell>
        <mxCell id="POgHE48X09RtfBZ0wKbj-41" value="d" style="shape=cylinder3;whiteSpace=wrap;html=1;boundedLbl=1;backgroundOutline=1;size=15;lid=0;" vertex="1" parent="1">
          <mxGeometry x="496" y="-730" width="60" height="80" as="geometry" />
        </mxCell>
        <mxCell id="POgHE48X09RtfBZ0wKbj-42" value="Empilha(P,f)&lt;br&gt;" style="text;html=1;align=center;verticalAlign=middle;resizable=0;points=[];autosize=1;strokeColor=none;fillColor=none;" vertex="1" parent="1">
          <mxGeometry x="490" y="-450" width="90" height="30" as="geometry" />
        </mxCell>
        <mxCell id="POgHE48X09RtfBZ0wKbj-43" value="f" style="shape=cylinder3;whiteSpace=wrap;html=1;boundedLbl=1;backgroundOutline=1;size=15;lid=0;" vertex="1" parent="1">
          <mxGeometry x="496" y="-790" width="60" height="80" as="geometry" />
        </mxCell>
        <mxCell id="POgHE48X09RtfBZ0wKbj-44" value="b" style="shape=cylinder3;whiteSpace=wrap;html=1;boundedLbl=1;backgroundOutline=1;size=15;lid=0;" vertex="1" parent="1">
          <mxGeometry x="666" y="-550" width="60" height="80" as="geometry" />
        </mxCell>
        <mxCell id="POgHE48X09RtfBZ0wKbj-45" value="s" style="shape=cylinder3;whiteSpace=wrap;html=1;boundedLbl=1;backgroundOutline=1;size=15;lid=0;" vertex="1" parent="1">
          <mxGeometry x="666" y="-615" width="60" height="80" as="geometry" />
        </mxCell>
        <mxCell id="POgHE48X09RtfBZ0wKbj-46" value="s" style="shape=cylinder3;whiteSpace=wrap;html=1;boundedLbl=1;backgroundOutline=1;size=15;lid=0;" vertex="1" parent="1">
          <mxGeometry x="666" y="-675" width="60" height="80" as="geometry" />
        </mxCell>
        <mxCell id="POgHE48X09RtfBZ0wKbj-47" value="d" style="shape=cylinder3;whiteSpace=wrap;html=1;boundedLbl=1;backgroundOutline=1;size=15;lid=0;" vertex="1" parent="1">
          <mxGeometry x="666" y="-740" width="60" height="80" as="geometry" />
        </mxCell>
        <mxCell id="POgHE48X09RtfBZ0wKbj-48" value="Desempilha(P)" style="text;html=1;align=center;verticalAlign=middle;resizable=0;points=[];autosize=1;strokeColor=none;fillColor=none;" vertex="1" parent="1">
          <mxGeometry x="655" y="-460" width="100" height="30" as="geometry" />
        </mxCell>
        <mxCell id="POgHE48X09RtfBZ0wKbj-54" value="b" style="shape=cylinder3;whiteSpace=wrap;html=1;boundedLbl=1;backgroundOutline=1;size=15;lid=0;" vertex="1" parent="1">
          <mxGeometry x="46" y="-80" width="60" height="80" as="geometry" />
        </mxCell>
        <mxCell id="POgHE48X09RtfBZ0wKbj-55" value="s" style="shape=cylinder3;whiteSpace=wrap;html=1;boundedLbl=1;backgroundOutline=1;size=15;lid=0;" vertex="1" parent="1">
          <mxGeometry x="46" y="-145" width="60" height="80" as="geometry" />
        </mxCell>
        <mxCell id="POgHE48X09RtfBZ0wKbj-56" value="s" style="shape=cylinder3;whiteSpace=wrap;html=1;boundedLbl=1;backgroundOutline=1;size=15;lid=0;" vertex="1" parent="1">
          <mxGeometry x="46" y="-205" width="60" height="80" as="geometry" />
        </mxCell>
        <mxCell id="POgHE48X09RtfBZ0wKbj-57" value="d" style="shape=cylinder3;whiteSpace=wrap;html=1;boundedLbl=1;backgroundOutline=1;size=15;lid=0;" vertex="1" parent="1">
          <mxGeometry x="46" y="-270" width="60" height="80" as="geometry" />
        </mxCell>
        <mxCell id="POgHE48X09RtfBZ0wKbj-58" value="Empilha(P,n)" style="text;html=1;align=center;verticalAlign=middle;resizable=0;points=[];autosize=1;strokeColor=none;fillColor=none;" vertex="1" parent="1">
          <mxGeometry x="40" y="10" width="90" height="30" as="geometry" />
        </mxCell>
        <mxCell id="POgHE48X09RtfBZ0wKbj-64" value="n" style="shape=cylinder3;whiteSpace=wrap;html=1;boundedLbl=1;backgroundOutline=1;size=15;lid=0;" vertex="1" parent="1">
          <mxGeometry x="46" y="-330" width="60" height="80" as="geometry" />
        </mxCell>
        <mxCell id="POgHE48X09RtfBZ0wKbj-65" value="b" style="shape=cylinder3;whiteSpace=wrap;html=1;boundedLbl=1;backgroundOutline=1;size=15;lid=0;" vertex="1" parent="1">
          <mxGeometry x="196" y="-80" width="60" height="80" as="geometry" />
        </mxCell>
        <mxCell id="POgHE48X09RtfBZ0wKbj-66" value="s" style="shape=cylinder3;whiteSpace=wrap;html=1;boundedLbl=1;backgroundOutline=1;size=15;lid=0;" vertex="1" parent="1">
          <mxGeometry x="196" y="-145" width="60" height="80" as="geometry" />
        </mxCell>
        <mxCell id="POgHE48X09RtfBZ0wKbj-67" value="s" style="shape=cylinder3;whiteSpace=wrap;html=1;boundedLbl=1;backgroundOutline=1;size=15;lid=0;" vertex="1" parent="1">
          <mxGeometry x="196" y="-205" width="60" height="80" as="geometry" />
        </mxCell>
        <mxCell id="POgHE48X09RtfBZ0wKbj-68" value="d" style="shape=cylinder3;whiteSpace=wrap;html=1;boundedLbl=1;backgroundOutline=1;size=15;lid=0;" vertex="1" parent="1">
          <mxGeometry x="196" y="-270" width="60" height="80" as="geometry" />
        </mxCell>
        <mxCell id="POgHE48X09RtfBZ0wKbj-69" value="Empilha(P,b)" style="text;html=1;align=center;verticalAlign=middle;resizable=0;points=[];autosize=1;strokeColor=none;fillColor=none;" vertex="1" parent="1">
          <mxGeometry x="190" y="10" width="90" height="30" as="geometry" />
        </mxCell>
        <mxCell id="POgHE48X09RtfBZ0wKbj-70" value="n" style="shape=cylinder3;whiteSpace=wrap;html=1;boundedLbl=1;backgroundOutline=1;size=15;lid=0;" vertex="1" parent="1">
          <mxGeometry x="196" y="-330" width="60" height="80" as="geometry" />
        </mxCell>
        <mxCell id="POgHE48X09RtfBZ0wKbj-71" value="b" style="shape=cylinder3;whiteSpace=wrap;html=1;boundedLbl=1;backgroundOutline=1;size=15;lid=0;" vertex="1" parent="1">
          <mxGeometry x="196" y="-390" width="60" height="80" as="geometry" />
        </mxCell>
        <mxCell id="POgHE48X09RtfBZ0wKbj-72" value="b" style="shape=cylinder3;whiteSpace=wrap;html=1;boundedLbl=1;backgroundOutline=1;size=15;lid=0;" vertex="1" parent="1">
          <mxGeometry x="375" y="-80" width="60" height="80" as="geometry" />
        </mxCell>
        <mxCell id="POgHE48X09RtfBZ0wKbj-73" value="s" style="shape=cylinder3;whiteSpace=wrap;html=1;boundedLbl=1;backgroundOutline=1;size=15;lid=0;" vertex="1" parent="1">
          <mxGeometry x="375" y="-145" width="60" height="80" as="geometry" />
        </mxCell>
        <mxCell id="POgHE48X09RtfBZ0wKbj-74" value="s" style="shape=cylinder3;whiteSpace=wrap;html=1;boundedLbl=1;backgroundOutline=1;size=15;lid=0;" vertex="1" parent="1">
          <mxGeometry x="375" y="-205" width="60" height="80" as="geometry" />
        </mxCell>
        <mxCell id="POgHE48X09RtfBZ0wKbj-75" value="d" style="shape=cylinder3;whiteSpace=wrap;html=1;boundedLbl=1;backgroundOutline=1;size=15;lid=0;" vertex="1" parent="1">
          <mxGeometry x="375" y="-270" width="60" height="80" as="geometry" />
        </mxCell>
        <mxCell id="POgHE48X09RtfBZ0wKbj-76" value="Pilha_cheia = false" style="text;html=1;align=center;verticalAlign=middle;resizable=0;points=[];autosize=1;strokeColor=none;fillColor=none;" vertex="1" parent="1">
          <mxGeometry x="354" y="10" width="120" height="30" as="geometry" />
        </mxCell>
        <mxCell id="POgHE48X09RtfBZ0wKbj-77" value="n" style="shape=cylinder3;whiteSpace=wrap;html=1;boundedLbl=1;backgroundOutline=1;size=15;lid=0;" vertex="1" parent="1">
          <mxGeometry x="375" y="-330" width="60" height="80" as="geometry" />
        </mxCell>
        <mxCell id="POgHE48X09RtfBZ0wKbj-78" value="b" style="shape=cylinder3;whiteSpace=wrap;html=1;boundedLbl=1;backgroundOutline=1;size=15;lid=0;" vertex="1" parent="1">
          <mxGeometry x="375" y="-390" width="60" height="80" as="geometry" />
        </mxCell>
        <mxCell id="POgHE48X09RtfBZ0wKbj-79" value="b" style="shape=cylinder3;whiteSpace=wrap;html=1;boundedLbl=1;backgroundOutline=1;size=15;lid=0;" vertex="1" parent="1">
          <mxGeometry x="556" y="-110" width="60" height="80" as="geometry" />
        </mxCell>
        <mxCell id="POgHE48X09RtfBZ0wKbj-80" value="s" style="shape=cylinder3;whiteSpace=wrap;html=1;boundedLbl=1;backgroundOutline=1;size=15;lid=0;" vertex="1" parent="1">
          <mxGeometry x="556" y="-175" width="60" height="80" as="geometry" />
        </mxCell>
        <mxCell id="POgHE48X09RtfBZ0wKbj-81" value="s" style="shape=cylinder3;whiteSpace=wrap;html=1;boundedLbl=1;backgroundOutline=1;size=15;lid=0;" vertex="1" parent="1">
          <mxGeometry x="556" y="-235" width="60" height="80" as="geometry" />
        </mxCell>
        <mxCell id="POgHE48X09RtfBZ0wKbj-82" value="d" style="shape=cylinder3;whiteSpace=wrap;html=1;boundedLbl=1;backgroundOutline=1;size=15;lid=0;" vertex="1" parent="1">
          <mxGeometry x="556" y="-300" width="60" height="80" as="geometry" />
        </mxCell>
        <mxCell id="POgHE48X09RtfBZ0wKbj-83" value="Desempilha(P)" style="text;html=1;align=center;verticalAlign=middle;resizable=0;points=[];autosize=1;strokeColor=none;fillColor=none;" vertex="1" parent="1">
          <mxGeometry x="545" y="-20" width="100" height="30" as="geometry" />
        </mxCell>
        <mxCell id="POgHE48X09RtfBZ0wKbj-84" value="n" style="shape=cylinder3;whiteSpace=wrap;html=1;boundedLbl=1;backgroundOutline=1;size=15;lid=0;" vertex="1" parent="1">
          <mxGeometry x="556" y="-360" width="60" height="80" as="geometry" />
        </mxCell>
        <mxCell id="POgHE48X09RtfBZ0wKbj-85" value="b" style="shape=cylinder3;whiteSpace=wrap;html=1;boundedLbl=1;backgroundOutline=1;size=15;lid=0;" vertex="1" parent="1">
          <mxGeometry x="711" y="-80" width="60" height="80" as="geometry" />
        </mxCell>
        <mxCell id="POgHE48X09RtfBZ0wKbj-86" value="s" style="shape=cylinder3;whiteSpace=wrap;html=1;boundedLbl=1;backgroundOutline=1;size=15;lid=0;" vertex="1" parent="1">
          <mxGeometry x="711" y="-145" width="60" height="80" as="geometry" />
        </mxCell>
        <mxCell id="POgHE48X09RtfBZ0wKbj-87" value="s" style="shape=cylinder3;whiteSpace=wrap;html=1;boundedLbl=1;backgroundOutline=1;size=15;lid=0;" vertex="1" parent="1">
          <mxGeometry x="711" y="-205" width="60" height="80" as="geometry" />
        </mxCell>
        <mxCell id="POgHE48X09RtfBZ0wKbj-88" value="d" style="shape=cylinder3;whiteSpace=wrap;html=1;boundedLbl=1;backgroundOutline=1;size=15;lid=0;" vertex="1" parent="1">
          <mxGeometry x="711" y="-270" width="60" height="80" as="geometry" />
        </mxCell>
        <mxCell id="POgHE48X09RtfBZ0wKbj-89" value="Empilha(P,m)" style="text;html=1;align=center;verticalAlign=middle;resizable=0;points=[];autosize=1;strokeColor=none;fillColor=none;" vertex="1" parent="1">
          <mxGeometry x="705" y="10" width="90" height="30" as="geometry" />
        </mxCell>
        <mxCell id="POgHE48X09RtfBZ0wKbj-90" value="n" style="shape=cylinder3;whiteSpace=wrap;html=1;boundedLbl=1;backgroundOutline=1;size=15;lid=0;" vertex="1" parent="1">
          <mxGeometry x="711" y="-330" width="60" height="80" as="geometry" />
        </mxCell>
        <mxCell id="POgHE48X09RtfBZ0wKbj-91" value="m&lt;br&gt;" style="shape=cylinder3;whiteSpace=wrap;html=1;boundedLbl=1;backgroundOutline=1;size=15;lid=0;" vertex="1" parent="1">
          <mxGeometry x="711" y="-390" width="60" height="80" as="geometry" />
        </mxCell>
        <mxCell id="POgHE48X09RtfBZ0wKbj-92" value="b" style="shape=cylinder3;whiteSpace=wrap;html=1;boundedLbl=1;backgroundOutline=1;size=15;lid=0;" vertex="1" parent="1">
          <mxGeometry x="37" y="410" width="60" height="80" as="geometry" />
        </mxCell>
        <mxCell id="POgHE48X09RtfBZ0wKbj-93" value="s" style="shape=cylinder3;whiteSpace=wrap;html=1;boundedLbl=1;backgroundOutline=1;size=15;lid=0;" vertex="1" parent="1">
          <mxGeometry x="37" y="345" width="60" height="80" as="geometry" />
        </mxCell>
        <mxCell id="POgHE48X09RtfBZ0wKbj-94" value="s" style="shape=cylinder3;whiteSpace=wrap;html=1;boundedLbl=1;backgroundOutline=1;size=15;lid=0;" vertex="1" parent="1">
          <mxGeometry x="37" y="285" width="60" height="80" as="geometry" />
        </mxCell>
        <mxCell id="POgHE48X09RtfBZ0wKbj-95" value="d" style="shape=cylinder3;whiteSpace=wrap;html=1;boundedLbl=1;backgroundOutline=1;size=15;lid=0;" vertex="1" parent="1">
          <mxGeometry x="37" y="220" width="60" height="80" as="geometry" />
        </mxCell>
        <mxCell id="POgHE48X09RtfBZ0wKbj-96" value="Desempilha(P)" style="text;html=1;align=center;verticalAlign=middle;resizable=0;points=[];autosize=1;strokeColor=none;fillColor=none;" vertex="1" parent="1">
          <mxGeometry x="26" y="500" width="100" height="30" as="geometry" />
        </mxCell>
        <mxCell id="POgHE48X09RtfBZ0wKbj-97" value="n" style="shape=cylinder3;whiteSpace=wrap;html=1;boundedLbl=1;backgroundOutline=1;size=15;lid=0;" vertex="1" parent="1">
          <mxGeometry x="37" y="160" width="60" height="80" as="geometry" />
        </mxCell>
        <mxCell id="POgHE48X09RtfBZ0wKbj-99" value="b" style="shape=cylinder3;whiteSpace=wrap;html=1;boundedLbl=1;backgroundOutline=1;size=15;lid=0;" vertex="1" parent="1">
          <mxGeometry x="196" y="410" width="60" height="80" as="geometry" />
        </mxCell>
        <mxCell id="POgHE48X09RtfBZ0wKbj-100" value="s" style="shape=cylinder3;whiteSpace=wrap;html=1;boundedLbl=1;backgroundOutline=1;size=15;lid=0;" vertex="1" parent="1">
          <mxGeometry x="196" y="345" width="60" height="80" as="geometry" />
        </mxCell>
        <mxCell id="POgHE48X09RtfBZ0wKbj-101" value="s" style="shape=cylinder3;whiteSpace=wrap;html=1;boundedLbl=1;backgroundOutline=1;size=15;lid=0;" vertex="1" parent="1">
          <mxGeometry x="196" y="285" width="60" height="80" as="geometry" />
        </mxCell>
        <mxCell id="POgHE48X09RtfBZ0wKbj-102" value="d" style="shape=cylinder3;whiteSpace=wrap;html=1;boundedLbl=1;backgroundOutline=1;size=15;lid=0;" vertex="1" parent="1">
          <mxGeometry x="196" y="220" width="60" height="80" as="geometry" />
        </mxCell>
        <mxCell id="POgHE48X09RtfBZ0wKbj-103" value="Desempilha(P)" style="text;html=1;align=center;verticalAlign=middle;resizable=0;points=[];autosize=1;strokeColor=none;fillColor=none;" vertex="1" parent="1">
          <mxGeometry x="185" y="500" width="100" height="30" as="geometry" />
        </mxCell>
        <mxCell id="POgHE48X09RtfBZ0wKbj-105" value="b" style="shape=cylinder3;whiteSpace=wrap;html=1;boundedLbl=1;backgroundOutline=1;size=15;lid=0;" vertex="1" parent="1">
          <mxGeometry x="346" y="410" width="60" height="80" as="geometry" />
        </mxCell>
        <mxCell id="POgHE48X09RtfBZ0wKbj-106" value="s" style="shape=cylinder3;whiteSpace=wrap;html=1;boundedLbl=1;backgroundOutline=1;size=15;lid=0;" vertex="1" parent="1">
          <mxGeometry x="346" y="345" width="60" height="80" as="geometry" />
        </mxCell>
        <mxCell id="POgHE48X09RtfBZ0wKbj-107" value="s" style="shape=cylinder3;whiteSpace=wrap;html=1;boundedLbl=1;backgroundOutline=1;size=15;lid=0;" vertex="1" parent="1">
          <mxGeometry x="346" y="285" width="60" height="80" as="geometry" />
        </mxCell>
        <mxCell id="POgHE48X09RtfBZ0wKbj-109" value="Desempilha(P)" style="text;html=1;align=center;verticalAlign=middle;resizable=0;points=[];autosize=1;strokeColor=none;fillColor=none;" vertex="1" parent="1">
          <mxGeometry x="335" y="500" width="100" height="30" as="geometry" />
        </mxCell>
        <mxCell id="POgHE48X09RtfBZ0wKbj-111" value="b" style="shape=cylinder3;whiteSpace=wrap;html=1;boundedLbl=1;backgroundOutline=1;size=15;lid=0;" vertex="1" parent="1">
          <mxGeometry x="530" y="410" width="60" height="80" as="geometry" />
        </mxCell>
        <mxCell id="POgHE48X09RtfBZ0wKbj-112" value="s" style="shape=cylinder3;whiteSpace=wrap;html=1;boundedLbl=1;backgroundOutline=1;size=15;lid=0;" vertex="1" parent="1">
          <mxGeometry x="530" y="345" width="60" height="80" as="geometry" />
        </mxCell>
        <mxCell id="POgHE48X09RtfBZ0wKbj-113" value="s" style="shape=cylinder3;whiteSpace=wrap;html=1;boundedLbl=1;backgroundOutline=1;size=15;lid=0;" vertex="1" parent="1">
          <mxGeometry x="530" y="285" width="60" height="80" as="geometry" />
        </mxCell>
        <mxCell id="POgHE48X09RtfBZ0wKbj-114" value="Pilha_Vazia = false" style="text;html=1;align=center;verticalAlign=middle;resizable=0;points=[];autosize=1;strokeColor=none;fillColor=none;" vertex="1" parent="1">
          <mxGeometry x="505" y="495" width="130" height="30" as="geometry" />
        </mxCell>
        <mxCell id="POgHE48X09RtfBZ0wKbj-115" value="b" style="shape=cylinder3;whiteSpace=wrap;html=1;boundedLbl=1;backgroundOutline=1;size=15;lid=0;strokeWidth=4;" vertex="1" parent="1">
          <mxGeometry x="355" y="755" width="60" height="80" as="geometry" />
        </mxCell>
        <mxCell id="POgHE48X09RtfBZ0wKbj-116" value="s" style="shape=cylinder3;whiteSpace=wrap;html=1;boundedLbl=1;backgroundOutline=1;size=15;lid=0;strokeWidth=4;" vertex="1" parent="1">
          <mxGeometry x="355" y="690" width="60" height="80" as="geometry" />
        </mxCell>
        <mxCell id="POgHE48X09RtfBZ0wKbj-117" value="s" style="shape=cylinder3;whiteSpace=wrap;html=1;boundedLbl=1;backgroundOutline=1;size=15;lid=0;strokeWidth=4;" vertex="1" parent="1">
          <mxGeometry x="355" y="630" width="60" height="80" as="geometry" />
        </mxCell>
        <mxCell id="POgHE48X09RtfBZ0wKbj-118" value="Imprime(P)" style="text;html=1;align=center;verticalAlign=middle;resizable=0;points=[];autosize=1;strokeColor=none;fillColor=none;" vertex="1" parent="1">
          <mxGeometry x="345" y="840" width="80" height="30" as="geometry" />
        </mxCell>
      </root>
    </mxGraphModel>
  </diagram>
</mxfile>
